<?xml version="1.0" encoding="UTF-8" standalone="no"?>
<!DOCTYPE svg PUBLIC "-//W3C//DTD SVG 1.1//EN" "http://www.w3.org/Graphics/SVG/1.1/DTD/svg11.dtd">
<svg width="100%" height="100%" viewBox="0 0 2384 1684" version="1.1" xmlns="http://www.w3.org/2000/svg" xmlns:xlink="http://www.w3.org/1999/xlink" xml:space="preserve" xmlns:serif="http://www.serif.com/" style="fill-rule:evenodd;clip-rule:evenodd;stroke-linecap:round;stroke-linejoin:round;stroke-miterlimit:10;">
    <g id="map_x0020_boundary">
        <path d="M0,56.719L2383.96,56.72L2383.94,1655.41L0,1655.43L0,56.719ZM0,0L2383.96,0L2383.94,1683.75L0,1683.77L0,0Z" style="fill:rgb(227,227,228);"/>
        <g id="ink_ext_XXXXXX">
            <g id="g12">
                <g id="g1008">
                    <g id="g1074">
                        <g id="g1033">
                            <g>
                                <path id="path22" d="M73.999,42.908C74.153,43.141 74.23,43.473 74.23,43.902C74.23,44.735 74.096,45.508 73.828,46.228C73.56,46.944 73.171,47.57 72.662,48.108C72.152,48.645 71.527,49.064 70.79,49.363C70.053,49.666 69.221,49.817 68.296,49.817C67.369,49.817 66.515,49.65 65.731,49.315C64.945,48.979 64.268,48.499 63.698,47.876C63.127,47.253 62.679,46.503 62.35,45.623C62.021,44.743 61.858,43.769 61.858,42.696C61.858,41.609 62.021,40.626 62.35,39.748C62.679,38.869 63.134,38.118 63.718,37.495C64.303,36.871 64.989,36.388 65.78,36.045C66.572,35.704 67.423,35.534 68.334,35.534C69.381,35.534 70.301,35.716 71.092,36.087C71.884,36.456 72.595,37.021 73.224,37.786C73.44,38 73.584,38.196 73.656,38.37C73.731,38.544 73.767,38.704 73.767,38.854C73.767,39.122 73.687,39.331 73.527,39.487C73.366,39.64 73.171,39.718 72.943,39.718C72.795,39.718 72.651,39.681 72.51,39.607C72.369,39.534 72.218,39.389 72.058,39.176C71.588,38.53 71.058,38.059 70.468,37.757C69.878,37.455 69.181,37.305 68.376,37.305C67.651,37.305 67.001,37.441 66.423,37.716C65.847,37.992 65.362,38.37 64.965,38.854C64.571,39.335 64.264,39.909 64.049,40.574C63.835,41.236 63.727,41.952 63.727,42.717C63.727,43.468 63.838,44.167 64.06,44.817C64.282,45.47 64.596,46.031 65.006,46.51C65.414,46.985 65.904,47.36 66.475,47.634C67.044,47.91 67.678,48.047 68.376,48.047C68.98,48.047 69.529,47.957 70.025,47.776C70.522,47.594 70.948,47.336 71.303,47.001C71.658,46.664 71.931,46.257 72.119,45.774C72.305,45.291 72.399,44.754 72.399,44.165L69.381,44.165C69.113,44.165 68.896,44.09 68.727,43.942C68.56,43.797 68.477,43.607 68.477,43.379C68.477,43.137 68.56,42.939 68.727,42.786C68.896,42.632 69.113,42.554 69.381,42.554L73.124,42.554C73.553,42.554 73.846,42.671 73.999,42.908Z" style="fill:rgb(65,65,66);fill-rule:nonzero;"/>
                            </g>
                            <g>
                                <path id="path24" d="M79.066,41.67C78.488,42.165 78.127,42.857 77.977,43.743L83.893,43.743C83.92,43.407 83.875,43.071 83.753,42.736C83.631,42.4 83.447,42.097 83.2,41.831C82.952,41.562 82.645,41.344 82.285,41.175C81.921,41.009 81.52,40.926 81.076,40.926C80.311,40.926 79.642,41.172 79.066,41.67ZM78.924,47.294C79.501,47.903 80.273,48.208 81.238,48.208C81.881,48.208 82.435,48.094 82.898,47.866C83.36,47.638 83.725,47.404 83.995,47.162C84.168,47.054 84.316,47.001 84.436,47.001C84.664,47.001 84.854,47.085 85,47.254C85.148,47.421 85.221,47.605 85.221,47.805C85.221,47.953 85.184,48.087 85.111,48.208L84.859,48.488C84.471,48.852 83.953,49.165 83.31,49.424C82.666,49.687 81.935,49.817 81.116,49.817C80.379,49.817 79.709,49.687 79.106,49.424C78.501,49.165 77.981,48.802 77.546,48.339C77.11,47.876 76.776,47.331 76.541,46.699C76.304,46.069 76.188,45.377 76.188,44.626C76.188,43.876 76.311,43.179 76.56,42.536C76.807,41.891 77.155,41.331 77.597,40.856C78.038,40.377 78.559,40.007 79.155,39.737C79.752,39.469 80.4,39.335 81.097,39.335C81.769,39.335 82.381,39.452 82.938,39.687C83.496,39.923 83.971,40.238 84.367,40.633C84.762,41.03 85.07,41.485 85.292,42.001C85.514,42.518 85.623,43.057 85.623,43.621C85.623,43.983 85.563,44.281 85.442,44.516C85.322,44.749 85.068,44.867 84.678,44.867L77.939,44.867C78.019,45.875 78.348,46.682 78.924,47.293L78.924,47.294Z" style="fill:rgb(65,65,66);fill-rule:nonzero;"/>
                            </g>
                            <path id="path26" d="M91.142,41.207C90.752,41.395 90.42,41.652 90.145,41.981C89.87,42.31 89.663,42.696 89.522,43.137C89.381,43.581 89.31,44.057 89.31,44.568C89.31,45.077 89.381,45.549 89.522,45.986C89.663,46.421 89.867,46.807 90.136,47.143C90.404,47.478 90.732,47.737 91.121,47.927C91.51,48.115 91.959,48.208 92.47,48.208C92.966,48.208 93.411,48.115 93.807,47.927C94.202,47.737 94.535,47.484 94.802,47.162C95.071,46.84 95.275,46.463 95.418,46.024C95.557,45.59 95.628,45.116 95.628,44.607C95.628,44.097 95.557,43.618 95.418,43.169C95.275,42.72 95.071,42.33 94.802,42.001C94.535,41.673 94.202,41.41 93.807,41.217C93.411,41.023 92.966,40.926 92.47,40.926C91.972,40.926 91.53,41.019 91.142,41.207ZM94.491,39.737C95.102,40.007 95.625,40.374 96.06,40.845C96.496,41.314 96.836,41.871 97.077,42.515C97.319,43.158 97.438,43.848 97.438,44.588C97.438,45.324 97.319,46.01 97.077,46.648C96.836,47.287 96.496,47.84 96.06,48.31C95.625,48.777 95.102,49.148 94.491,49.415C93.881,49.684 93.208,49.817 92.47,49.817C91.731,49.817 91.058,49.684 90.448,49.415C89.837,49.148 89.313,48.777 88.877,48.31C88.442,47.84 88.103,47.287 87.861,46.648C87.62,46.01 87.5,45.324 87.5,44.588C87.5,43.848 87.621,43.158 87.861,42.515C88.103,41.871 88.442,41.314 88.877,40.845C89.313,40.374 89.837,40.007 90.448,39.737C91.058,39.469 91.731,39.335 92.47,39.335C93.208,39.335 93.881,39.469 94.491,39.737Z" style="fill:rgb(65,65,66);fill-rule:nonzero;"/>
                            <g>
                                <path id="path28" d="M100.04,35.984C100.199,35.817 100.415,35.734 100.682,35.734C100.951,35.734 101.166,35.817 101.328,35.984C101.488,36.154 101.568,36.352 101.568,36.579L101.568,47.061C101.568,47.343 101.608,47.57 101.688,47.744C101.77,47.92 101.923,48.007 102.15,48.007C102.34,48.007 102.472,48.082 102.554,48.229C102.636,48.376 102.674,48.544 102.674,48.73C102.674,49 102.594,49.216 102.434,49.375C102.272,49.535 102.017,49.617 101.668,49.617C101.025,49.617 100.552,49.415 100.249,49.013C99.947,48.61 99.798,47.994 99.798,47.162L99.798,36.579C99.798,36.352 99.877,36.155 100.04,35.985L100.04,35.984Z" style="fill:rgb(65,65,66);fill-rule:nonzero;"/>
                            </g>
                            <path id="path30" d="M107.667,41.207C107.277,41.395 106.945,41.652 106.67,41.981C106.395,42.31 106.188,42.696 106.047,43.137C105.905,43.581 105.835,44.057 105.835,44.568C105.835,45.077 105.905,45.549 106.047,45.986C106.188,46.421 106.392,46.807 106.661,47.143C106.929,47.478 107.256,47.737 107.646,47.927C108.035,48.115 108.484,48.208 108.995,48.208C109.491,48.208 109.936,48.115 110.332,47.927C110.727,47.737 111.06,47.484 111.327,47.162C111.595,46.84 111.8,46.463 111.943,46.024C112.083,45.59 112.153,45.116 112.153,44.607C112.153,44.097 112.083,43.618 111.943,43.169C111.8,42.72 111.595,42.33 111.327,42.001C111.06,41.673 110.727,41.41 110.332,41.217C109.936,41.023 109.491,40.926 108.995,40.926C108.497,40.926 108.054,41.019 107.667,41.207ZM111.016,39.737C111.627,40.007 112.15,40.374 112.585,40.845C113.021,41.314 113.361,41.871 113.602,42.515C113.844,43.158 113.963,43.848 113.963,44.588C113.963,45.324 113.844,46.01 113.602,46.648C113.361,47.287 113.021,47.84 112.585,48.31C112.15,48.777 111.627,49.148 111.016,49.415C110.406,49.684 109.733,49.817 108.995,49.817C108.256,49.817 107.583,49.684 106.973,49.415C106.362,49.148 105.838,48.777 105.402,48.31C104.968,47.84 104.628,47.287 104.386,46.648C104.145,46.01 104.025,45.324 104.025,44.588C104.025,43.848 104.145,43.158 104.386,42.515C104.628,41.871 104.968,41.314 105.402,40.845C105.838,40.374 106.362,40.007 106.973,39.737C107.583,39.469 108.256,39.335 108.995,39.335C109.733,39.335 110.406,39.469 111.016,39.737Z" style="fill:rgb(65,65,66);fill-rule:nonzero;"/>
                            <path id="path32" d="M121.987,47.946C122.382,47.772 122.724,47.527 123.013,47.213C123.3,46.897 123.528,46.519 123.696,46.075C123.864,45.633 123.948,45.143 123.948,44.607C123.948,44.07 123.867,43.578 123.707,43.127C123.546,42.678 123.324,42.29 123.042,41.962C122.761,41.632 122.422,41.377 122.027,41.196C121.63,41.016 121.198,40.926 120.728,40.926C120.26,40.926 119.827,41.019 119.431,41.207C119.036,41.395 118.696,41.652 118.415,41.981C118.134,42.31 117.916,42.699 117.76,43.148C117.606,43.598 117.53,44.083 117.53,44.607C117.53,45.13 117.613,45.614 117.78,46.056C117.949,46.499 118.177,46.88 118.466,47.202C118.754,47.523 119.093,47.772 119.481,47.946C119.871,48.122 120.286,48.208 120.728,48.208C121.172,48.208 121.591,48.122 121.987,47.946ZM124.431,52.412C123.585,53.231 122.406,53.64 120.89,53.64C120.218,53.64 119.629,53.567 119.119,53.419C118.61,53.271 118.159,53.084 117.771,52.856C117.436,52.694 117.269,52.454 117.269,52.13C117.269,51.903 117.331,51.715 117.46,51.567C117.587,51.421 117.758,51.346 117.973,51.346C118.134,51.346 118.305,51.384 118.486,51.457C118.667,51.531 118.874,51.614 119.109,51.71C119.344,51.804 119.615,51.887 119.923,51.96C120.232,52.035 120.594,52.069 121.01,52.069C122.043,52.069 122.791,51.772 123.253,51.175C123.716,50.579 123.948,49.77 123.948,48.751L123.948,47.385C123.557,48.136 123.062,48.727 122.459,49.165C121.855,49.6 121.125,49.817 120.266,49.817C119.636,49.817 119.046,49.694 118.495,49.445C117.945,49.198 117.462,48.845 117.047,48.39C116.631,47.934 116.305,47.388 116.071,46.75C115.836,46.113 115.719,45.405 115.719,44.627C115.719,43.834 115.843,43.115 116.091,42.464C116.34,41.814 116.677,41.257 117.108,40.795C117.537,40.332 118.033,39.972 118.596,39.718C119.16,39.462 119.756,39.335 120.387,39.335C121.312,39.335 122.056,39.556 122.62,40C123.183,40.442 123.625,40.993 123.948,41.649L123.948,40.281C123.948,40.068 124.025,39.889 124.18,39.748C124.333,39.607 124.545,39.537 124.814,39.537C125.121,39.537 125.347,39.611 125.486,39.758C125.627,39.906 125.698,40.08 125.698,40.281L125.698,48.772C125.698,50.381 125.276,51.595 124.431,52.413L124.431,52.412Z" style="fill:rgb(65,65,66);fill-rule:nonzero;"/>
                            <path id="path34" d="M128.842,39.779C129.003,39.617 129.217,39.537 129.485,39.537C129.753,39.537 129.968,39.617 130.13,39.779C130.291,39.94 130.372,40.141 130.372,40.382L130.372,47.061C130.372,47.343 130.412,47.57 130.492,47.744C130.572,47.92 130.726,48.007 130.954,48.007C131.143,48.007 131.276,48.082 131.358,48.229C131.438,48.376 131.476,48.544 131.476,48.73C131.476,49 131.398,49.216 131.236,49.375C131.076,49.535 130.821,49.617 130.471,49.617C129.828,49.617 129.355,49.415 129.052,49.013C128.751,48.61 128.6,47.994 128.6,47.162L128.6,40.382C128.6,40.141 128.681,39.941 128.842,39.779L128.842,39.779ZM130.261,36.148C130.454,36.329 130.551,36.579 130.551,36.901C130.551,37.251 130.454,37.508 130.261,37.676C130.065,37.843 129.814,37.927 129.506,37.927C129.196,37.927 128.949,37.84 128.762,37.665C128.574,37.49 128.48,37.237 128.48,36.901C128.48,36.579 128.574,36.329 128.762,36.148C128.949,35.966 129.196,35.874 129.506,35.874C129.814,35.874 130.064,35.966 130.261,36.148Z" style="fill:rgb(65,65,66);fill-rule:nonzero;"/>
                            <g>
                                <path id="path36" d="M141.449,46.77C141.616,46.897 141.7,47.089 141.7,47.343C141.7,47.638 141.608,47.873 141.418,48.047C141.07,48.516 140.583,48.929 139.961,49.286C139.337,49.638 138.582,49.817 137.697,49.817C136.973,49.817 136.309,49.684 135.706,49.415C135.102,49.148 134.585,48.777 134.156,48.31C133.726,47.84 133.394,47.287 133.159,46.648C132.926,46.01 132.808,45.318 132.808,44.568C132.808,43.827 132.933,43.142 133.18,42.504C133.429,41.868 133.771,41.314 134.206,40.845C134.642,40.374 135.159,40.007 135.756,39.737C136.353,39.469 137,39.335 137.697,39.335C138.582,39.335 139.337,39.506 139.961,39.848C140.583,40.189 141.076,40.596 141.439,41.066C141.547,41.214 141.637,41.358 141.711,41.499C141.785,41.638 141.822,41.784 141.822,41.931C141.822,42.2 141.738,42.397 141.569,42.525C141.402,42.653 141.224,42.717 141.037,42.717C140.876,42.717 140.746,42.682 140.644,42.615L140.392,42.393C140.313,42.286 140.199,42.149 140.051,41.981C139.903,41.814 139.722,41.652 139.509,41.499C139.293,41.344 139.038,41.21 138.742,41.096C138.448,40.983 138.112,40.926 137.737,40.926C137.269,40.926 136.837,41.023 136.45,41.217C136.06,41.41 135.732,41.677 135.464,42.012C135.196,42.346 134.987,42.736 134.84,43.179C134.692,43.621 134.618,44.09 134.618,44.588C134.618,45.084 134.692,45.553 134.84,45.995C134.987,46.438 135.196,46.822 135.464,47.153C135.732,47.482 136.057,47.737 136.439,47.927C136.822,48.115 137.248,48.207 137.718,48.207C138.24,48.207 138.716,48.087 139.145,47.846C139.575,47.605 139.963,47.282 140.313,46.88C140.514,46.678 140.721,46.579 140.936,46.579C141.111,46.579 141.281,46.642 141.448,46.769L141.449,46.77Z" style="fill:rgb(65,65,66);fill-rule:nonzero;"/>
                            </g>
                            <g>
                                <path id="path38" d="M149.734,47.946C150.121,47.772 150.46,47.53 150.749,47.222C151.036,46.915 151.264,46.539 151.433,46.096C151.6,45.654 151.685,45.163 151.685,44.626C151.685,44.09 151.603,43.593 151.443,43.137C151.282,42.682 151.06,42.29 150.778,41.962C150.498,41.631 150.162,41.377 149.772,41.196C149.384,41.016 148.955,40.926 148.485,40.926C147.989,40.926 147.543,41.019 147.147,41.207C146.752,41.395 146.413,41.652 146.132,41.981C145.85,42.31 145.634,42.699 145.487,43.148C145.341,43.598 145.266,44.09 145.266,44.626C145.266,45.149 145.348,45.633 145.508,46.075C145.669,46.519 145.89,46.897 146.171,47.213C146.453,47.527 146.791,47.772 147.188,47.946C147.582,48.122 148.015,48.208 148.485,48.208C148.929,48.208 149.344,48.122 149.734,47.946ZM153.555,47.736C153.636,47.929 153.79,48.026 154.019,48.026C154.179,48.026 154.309,48.087 154.41,48.208C154.511,48.329 154.562,48.502 154.562,48.73C154.562,49.321 154.2,49.617 153.475,49.617C153.165,49.617 152.904,49.57 152.69,49.475C152.476,49.382 152.299,49.254 152.157,49.094C152.015,48.933 151.91,48.744 151.835,48.53C151.761,48.316 151.711,48.087 151.685,47.847L151.685,47.385C151.335,48.136 150.849,48.728 150.226,49.165C149.602,49.6 148.861,49.817 148.003,49.817C147.372,49.817 146.777,49.691 146.222,49.435C145.666,49.181 145.183,48.826 144.773,48.371C144.365,47.913 144.042,47.367 143.807,46.73C143.572,46.092 143.456,45.384 143.456,44.607C143.456,43.827 143.579,43.115 143.828,42.464C144.075,41.814 144.411,41.257 144.833,40.795C145.255,40.332 145.749,39.972 146.313,39.718C146.877,39.462 147.478,39.335 148.123,39.335C149.008,39.335 149.738,39.544 150.316,39.96C150.892,40.375 151.348,40.939 151.685,41.649L151.685,40.281C151.685,40.054 151.761,39.873 151.917,39.737C152.069,39.605 152.282,39.537 152.55,39.537C152.818,39.537 153.033,39.605 153.193,39.737C153.353,39.873 153.434,40.054 153.434,40.281L153.434,47.042C153.434,47.31 153.475,47.541 153.555,47.736Z" style="fill:rgb(65,65,66);fill-rule:nonzero;"/>
                            </g>
                            <g>
                                <path id="path40" d="M156.739,35.984C156.901,35.817 157.115,35.734 157.384,35.734C157.653,35.734 157.867,35.817 158.027,35.984C158.188,36.154 158.268,36.352 158.268,36.579L158.268,47.061C158.268,47.343 158.309,47.57 158.39,47.744C158.468,47.92 158.625,48.007 158.851,48.007C159.039,48.007 159.175,48.082 159.254,48.229C159.334,48.376 159.375,48.544 159.375,48.73C159.375,49 159.294,49.216 159.133,49.375C158.972,49.535 158.717,49.617 158.369,49.617C157.724,49.617 157.253,49.415 156.952,49.013C156.649,48.61 156.498,47.994 156.498,47.162L156.498,36.579C156.498,36.352 156.578,36.155 156.739,35.985L156.739,35.984Z" style="fill:rgb(65,65,66);fill-rule:nonzero;"/>
                            </g>
                        </g>
                        <g id="g1021">
                            <g>
                                <path id="path42" d="M182.116,35.926C182.285,35.798 182.469,35.734 182.671,35.734C182.939,35.734 183.163,35.814 183.344,35.976C183.525,36.136 183.615,36.385 183.615,36.72L183.615,48.751C183.615,49.019 183.532,49.235 183.363,49.395C183.196,49.556 182.978,49.637 182.71,49.637C182.442,49.637 182.224,49.556 182.057,49.395C181.888,49.235 181.805,49.019 181.805,48.751L181.805,39.334L177.7,46.639C177.592,46.84 177.479,46.988 177.358,47.082C177.238,47.175 177.083,47.222 176.895,47.222C176.587,47.222 176.325,47.028 176.11,46.639L172.107,39.416L172.107,48.731C172.107,49 172.023,49.216 171.855,49.375C171.688,49.535 171.471,49.617 171.201,49.617C170.933,49.617 170.716,49.535 170.549,49.375C170.38,49.216 170.297,49 170.297,48.731L170.297,36.72C170.297,36.412 170.382,36.17 170.558,35.996C170.732,35.822 170.974,35.734 171.283,35.734C171.523,35.734 171.722,35.798 171.876,35.926C172.029,36.052 172.187,36.272 172.349,36.579L176.977,44.729L181.603,36.579C181.777,36.272 181.949,36.052 182.116,35.926L182.116,35.926Z" style="fill:rgb(65,65,66);fill-rule:nonzero;"/>
                            </g>
                            <g>
                                <path id="path44" d="M192.455,47.946C192.843,47.772 193.182,47.53 193.471,47.222C193.759,46.915 193.987,46.539 194.154,46.096C194.323,45.654 194.406,45.163 194.406,44.626C194.406,44.09 194.326,43.593 194.165,43.137C194.003,42.682 193.782,42.29 193.5,41.962C193.219,41.631 192.883,41.377 192.495,41.196C192.106,41.016 191.676,40.926 191.206,40.926C190.711,40.926 190.266,41.019 189.869,41.207C189.474,41.395 189.134,41.652 188.854,41.981C188.572,42.31 188.356,42.699 188.208,43.148C188.062,43.598 187.989,44.09 187.989,44.626C187.989,45.149 188.069,45.633 188.229,46.075C188.389,46.519 188.611,46.897 188.893,47.213C189.175,47.527 189.513,47.772 189.909,47.946C190.305,48.122 190.737,48.208 191.206,48.208C191.65,48.208 192.066,48.122 192.455,47.946L192.455,47.946ZM196.276,47.736C196.357,47.929 196.511,48.026 196.74,48.026C196.9,48.026 197.031,48.087 197.132,48.208C197.232,48.329 197.283,48.502 197.283,48.73C197.283,49.321 196.921,49.617 196.196,49.617C195.888,49.617 195.627,49.57 195.411,49.475C195.198,49.382 195.02,49.254 194.878,49.094C194.738,48.933 194.631,48.744 194.556,48.53C194.483,48.316 194.432,48.087 194.406,47.847L194.406,47.385C194.056,48.136 193.571,48.728 192.947,49.165C192.325,49.6 191.582,49.817 190.723,49.817C190.094,49.817 189.5,49.691 188.944,49.435C188.387,49.181 187.904,48.826 187.495,48.371C187.086,47.913 186.764,47.367 186.53,46.73C186.295,46.092 186.177,45.384 186.177,44.607C186.177,43.827 186.302,43.115 186.549,42.464C186.797,41.814 187.133,41.257 187.554,40.795C187.978,40.332 188.47,39.972 189.034,39.718C189.598,39.462 190.201,39.335 190.845,39.335C191.729,39.335 192.46,39.544 193.038,39.96C193.615,40.375 194.07,40.939 194.406,41.65L194.406,40.281C194.406,40.054 194.483,39.873 194.638,39.738C194.792,39.605 195.003,39.537 195.272,39.537C195.54,39.537 195.754,39.605 195.914,39.738C196.075,39.873 196.156,40.054 196.156,40.281L196.156,47.042C196.156,47.31 196.196,47.541 196.277,47.736L196.276,47.736Z" style="fill:rgb(65,65,66);fill-rule:nonzero;"/>
                            </g>
                            <g>
                                <path id="path46" d="M205.496,47.927C205.885,47.737 206.221,47.484 206.503,47.162C206.785,46.84 207.002,46.458 207.157,46.015C207.311,45.573 207.388,45.097 207.388,44.588C207.388,44.078 207.311,43.598 207.157,43.148C207.002,42.699 206.785,42.31 206.503,41.981C206.221,41.652 205.885,41.395 205.496,41.207C205.108,41.019 204.672,40.926 204.19,40.926C203.72,40.926 203.287,41.019 202.891,41.207C202.496,41.395 202.157,41.656 201.875,41.992C201.594,42.326 201.375,42.717 201.222,43.158C201.066,43.6 200.99,44.078 200.99,44.588C200.99,45.096 201.066,45.573 201.222,46.014C201.374,46.458 201.594,46.84 201.875,47.162C202.157,47.484 202.496,47.737 202.891,47.927C203.287,48.115 203.72,48.207 204.19,48.207C204.672,48.207 205.108,48.115 205.496,47.927L205.496,47.927ZM200.748,53.198C200.588,53.358 200.381,53.44 200.126,53.44C199.858,53.44 199.639,53.358 199.471,53.198C199.303,53.037 199.219,52.837 199.219,52.594L199.219,40.28C199.219,40.094 199.294,39.922 199.442,39.769C199.588,39.614 199.816,39.536 200.126,39.536C200.433,39.536 200.654,39.611 200.79,39.758C200.922,39.906 200.99,40.08 200.99,40.28L200.99,41.649C201.312,41.005 201.764,40.459 202.348,40.011C202.931,39.56 203.666,39.334 204.551,39.334C205.235,39.334 205.859,39.466 206.421,39.728C206.985,39.99 207.475,40.351 207.89,40.816C208.308,41.277 208.63,41.83 208.858,42.475C209.084,43.117 209.198,43.821 209.198,44.588C209.198,45.338 209.08,46.031 208.847,46.668C208.611,47.306 208.289,47.859 207.881,48.329C207.472,48.798 206.979,49.164 206.402,49.424C205.826,49.687 205.195,49.817 204.51,49.817C203.666,49.817 202.945,49.607 202.348,49.184C201.751,48.762 201.298,48.196 200.99,47.484L200.99,52.593C200.99,52.837 200.909,53.037 200.748,53.198L200.748,53.197L200.748,53.198Z" style="fill:rgb(65,65,66);fill-rule:nonzero;"/>
                            </g>
                            <g>
                                <path id="path48" d="M217.815,47.927C218.204,47.737 218.54,47.484 218.822,47.162C219.104,46.84 219.319,46.458 219.476,46.015C219.629,45.573 219.705,45.097 219.705,44.588C219.705,44.078 219.629,43.598 219.476,43.148C219.319,42.699 219.104,42.31 218.822,41.981C218.54,41.652 218.204,41.395 217.815,41.207C217.425,41.019 216.99,40.926 216.507,40.926C216.038,40.926 215.605,41.019 215.209,41.207C214.815,41.395 214.476,41.656 214.194,41.992C213.912,42.326 213.693,42.717 213.54,43.158C213.385,43.6 213.308,44.078 213.308,44.588C213.308,45.096 213.385,45.573 213.54,46.014C213.693,46.458 213.912,46.84 214.194,47.162C214.476,47.484 214.815,47.737 215.209,47.927C215.605,48.115 216.038,48.207 216.507,48.207C216.99,48.207 217.425,48.115 217.815,47.927L217.815,47.927ZM213.067,53.198C212.907,53.358 212.699,53.44 212.443,53.44C212.175,53.44 211.957,53.358 211.791,53.198C211.622,53.037 211.538,52.837 211.538,52.594L211.538,40.28C211.538,40.094 211.612,39.922 211.759,39.769C211.907,39.614 212.135,39.536 212.443,39.536C212.75,39.536 212.973,39.611 213.107,39.758C213.24,39.906 213.307,40.08 213.307,40.28L213.307,41.649C213.631,41.005 214.083,40.459 214.665,40.011C215.25,39.56 215.984,39.334 216.869,39.334C217.554,39.334 218.177,39.466 218.74,39.728C219.304,39.99 219.794,40.351 220.208,40.816C220.625,41.277 220.948,41.83 221.175,42.475C221.403,43.117 221.516,43.821 221.516,44.588C221.516,45.338 221.399,46.031 221.164,46.668C220.93,47.306 220.608,47.859 220.199,48.329C219.791,48.798 219.297,49.164 218.719,49.424C218.143,49.687 217.513,49.817 216.831,49.817C215.984,49.817 215.262,49.607 214.665,49.184C214.071,48.762 213.617,48.196 213.307,47.484L213.307,52.593C213.307,52.837 213.227,53.037 213.067,53.198L213.067,53.197L213.067,53.198Z" style="fill:rgb(65,65,66);fill-rule:nonzero;"/>
                            </g>
                            <path id="path50" d="M224.098,39.779C224.257,39.617 224.474,39.537 224.741,39.537C225.011,39.537 225.224,39.617 225.385,39.779C225.546,39.94 225.626,40.141 225.626,40.382L225.626,47.062C225.626,47.344 225.666,47.57 225.748,47.744C225.828,47.92 225.983,48.007 226.21,48.007C226.398,48.007 226.532,48.082 226.612,48.229C226.692,48.376 226.734,48.544 226.734,48.731C226.734,49 226.652,49.216 226.492,49.375C226.33,49.535 226.075,49.617 225.727,49.617C225.083,49.617 224.611,49.415 224.308,49.013C224.007,48.61 223.856,47.994 223.856,47.163L223.856,40.382C223.856,40.141 223.937,39.941 224.098,39.779L224.098,39.779ZM225.515,36.148C225.71,36.329 225.807,36.579 225.807,36.901C225.807,37.251 225.71,37.508 225.515,37.676C225.322,37.843 225.07,37.927 224.762,37.927C224.454,37.927 224.205,37.84 224.017,37.665C223.829,37.49 223.736,37.237 223.736,36.901C223.736,36.579 223.829,36.329 224.017,36.148C224.205,35.966 224.454,35.874 224.762,35.874C225.07,35.874 225.322,35.966 225.515,36.148Z" style="fill:rgb(65,65,66);fill-rule:nonzero;"/>
                            <g>
                                <path id="path52" d="M228.888,39.779C229.036,39.617 229.264,39.537 229.572,39.537C229.881,39.537 230.102,39.614 230.236,39.769C230.37,39.923 230.437,40.094 230.437,40.281L230.437,41.246C230.705,40.657 231.115,40.189 231.665,39.848C232.215,39.506 232.866,39.335 233.617,39.335C234.864,39.335 235.806,39.708 236.443,40.452C237.081,41.196 237.399,42.179 237.399,43.4L237.399,48.772C237.399,49 237.316,49.198 237.148,49.363C236.98,49.532 236.769,49.616 236.515,49.616C236.259,49.616 236.05,49.532 235.89,49.363C235.73,49.198 235.648,49 235.648,48.772L235.648,43.902C235.648,43.004 235.423,42.283 234.975,41.741C234.525,41.196 233.898,40.926 233.093,40.926C232.248,40.926 231.594,41.203 231.131,41.76C230.669,42.317 230.437,43.045 230.437,43.942L230.437,48.772C230.437,49 230.357,49.197 230.196,49.363C230.036,49.532 229.821,49.616 229.553,49.616C229.311,49.616 229.102,49.539 228.928,49.384C228.755,49.232 228.667,49.026 228.667,48.771L228.667,40.301C228.667,40.114 228.742,39.94 228.888,39.778L228.888,39.779Z" style="fill:rgb(65,65,66);fill-rule:nonzero;"/>
                            </g>
                            <path id="path54" d="M245.904,47.946C246.3,47.772 246.641,47.527 246.93,47.213C247.218,46.897 247.447,46.519 247.613,46.075C247.781,45.633 247.866,45.143 247.866,44.607C247.866,44.07 247.784,43.578 247.624,43.127C247.463,42.678 247.241,42.29 246.96,41.962C246.679,41.631 246.339,41.377 245.944,41.196C245.548,41.016 245.117,40.926 244.645,40.926C244.177,40.926 243.744,41.019 243.348,41.207C242.953,41.395 242.614,41.652 242.332,41.981C242.051,42.31 241.833,42.699 241.678,43.148C241.525,43.598 241.447,44.083 241.447,44.607C241.447,45.129 241.531,45.613 241.699,46.056C241.868,46.499 242.094,46.88 242.383,47.202C242.672,47.523 243.01,47.772 243.399,47.946C243.788,48.122 244.204,48.208 244.645,48.208C245.089,48.208 245.508,48.122 245.904,47.946L245.904,47.946ZM248.348,52.412C247.503,53.231 246.323,53.64 244.807,53.64C244.137,53.64 243.546,53.567 243.037,53.419C242.527,53.271 242.077,53.084 241.689,52.856C241.353,52.694 241.186,52.454 241.186,52.13C241.186,51.903 241.25,51.715 241.378,51.567C241.504,51.421 241.675,51.346 241.89,51.346C242.052,51.346 242.222,51.384 242.404,51.457C242.584,51.531 242.793,51.614 243.026,51.71C243.261,51.804 243.534,51.887 243.842,51.96C244.149,52.035 244.513,52.069 244.928,52.069C245.96,52.069 246.708,51.772 247.171,51.175C247.633,50.579 247.866,49.77 247.866,48.751L247.866,47.385C247.476,48.136 246.979,48.727 246.377,49.165C245.772,49.6 245.042,49.817 244.184,49.817C243.553,49.817 242.963,49.694 242.414,49.445C241.864,49.198 241.381,48.845 240.965,48.39C240.549,47.934 240.224,47.388 239.989,46.75C239.754,46.113 239.637,45.405 239.637,44.627C239.637,43.834 239.761,43.115 240.009,42.464C240.257,41.814 240.595,41.257 241.026,40.795C241.454,40.332 241.951,39.972 242.513,39.718C243.077,39.462 243.674,39.335 244.305,39.335C245.231,39.335 245.974,39.556 246.538,40C247.101,40.442 247.544,40.993 247.866,41.649L247.866,40.281C247.866,40.068 247.943,39.889 248.097,39.748C248.251,39.607 248.463,39.537 248.731,39.537C249.038,39.537 249.264,39.611 249.403,39.758C249.546,39.906 249.617,40.08 249.617,40.281L249.616,48.772C249.616,50.381 249.193,51.595 248.348,52.413L248.348,52.412Z" style="fill:rgb(65,65,66);fill-rule:nonzero;"/>
                        </g>
                    </g>
                    <g id="g1039">
                        <path id="path56" d="M55.254,17.394C55.565,17.832 55.72,18.409 55.72,19.128C55.72,20.332 55.521,21.459 55.123,22.508C54.725,23.557 54.147,24.469 53.389,25.246C52.632,26.023 51.709,26.635 50.621,27.081C49.534,27.528 48.291,27.752 46.892,27.752C45.533,27.752 44.276,27.509 43.12,27.024C41.964,26.538 40.963,25.848 40.119,24.955C39.274,24.062 38.614,22.979 38.138,21.706C37.662,20.434 37.424,19.022 37.424,17.467C37.424,15.894 37.667,14.466 38.152,13.185C38.638,11.903 39.313,10.811 40.177,9.907C41.042,9.004 42.056,8.304 43.221,7.81C44.387,7.314 45.64,7.067 46.98,7.067C48.398,7.067 49.651,7.285 50.738,7.722C51.826,8.159 52.865,8.883 53.855,9.893C54.283,10.281 54.564,10.645 54.7,10.985C54.836,11.325 54.904,11.65 54.904,11.961C54.923,12.486 54.768,12.908 54.438,13.229C54.108,13.549 53.72,13.709 53.273,13.709C52.981,13.709 52.695,13.646 52.413,13.52C52.132,13.394 51.855,13.166 51.583,12.835C51.02,12.155 50.384,11.621 49.675,11.232C48.966,10.845 48.097,10.65 47.067,10.65C46.135,10.65 45.305,10.815 44.576,11.146C43.848,11.475 43.231,11.941 42.726,12.544C42.221,13.146 41.838,13.869 41.575,14.714C41.313,15.56 41.182,16.487 41.182,17.497C41.182,18.487 41.328,19.39 41.619,20.206C41.91,21.022 42.318,21.721 42.843,22.303C43.367,22.886 43.989,23.343 44.707,23.673C45.426,24.003 46.213,24.168 47.067,24.168C48.543,24.168 49.714,23.803 50.578,23.076C51.442,22.347 51.903,21.313 51.962,19.973L48.408,19.973C47.844,19.973 47.397,19.827 47.067,19.536C46.737,19.245 46.572,18.856 46.572,18.37C46.572,17.885 46.737,17.491 47.067,17.191C47.397,16.89 47.844,16.739 48.408,16.739L53.506,16.739C54.36,16.739 54.943,16.957 55.254,17.394Z" style="fill:rgb(65,65,66);fill-rule:nonzero;"/>
                        <g>
                            <path id="path58" d="M76.389,7.737C76.729,7.484 77.093,7.358 77.481,7.358C78.025,7.358 78.487,7.523 78.866,7.853C79.244,8.183 79.434,8.698 79.434,9.398L79.434,25.684C79.434,26.208 79.263,26.635 78.924,26.965C78.583,27.295 78.142,27.46 77.598,27.46C77.074,27.46 76.637,27.295 76.287,26.965C75.937,26.635 75.762,26.208 75.762,25.684L75.762,14.612L70.956,23.382C70.742,23.79 70.509,24.096 70.256,24.3C70.004,24.503 69.684,24.605 69.295,24.605C68.654,24.605 68.12,24.188 67.693,23.352L63.032,14.729L63.032,25.684C63.032,26.208 62.861,26.635 62.522,26.965C62.182,27.295 61.739,27.46 61.196,27.46C60.671,27.46 60.234,27.295 59.885,26.965C59.535,26.635 59.36,26.208 59.36,25.684L59.36,9.398C59.36,8.756 59.55,8.257 59.928,7.897C60.307,7.538 60.798,7.358 61.4,7.358C61.885,7.358 62.283,7.494 62.594,7.766C62.905,8.037 63.216,8.465 63.527,9.047L69.411,19.623L75.384,9.047C75.714,8.426 76.049,7.989 76.389,7.737Z" style="fill:rgb(65,65,66);fill-rule:nonzero;"/>
                        </g>
                        <path id="path60" d="M94.61,19.914L91.639,12.398L88.667,19.914L94.61,19.914ZM87.473,22.944L86.132,26.324C85.958,26.751 85.735,27.047 85.462,27.213C85.191,27.378 84.85,27.46 84.443,27.46C83.899,27.46 83.462,27.314 83.132,27.023C82.801,26.732 82.636,26.344 82.636,25.858C82.636,25.644 82.661,25.445 82.709,25.261C82.758,25.077 82.84,24.848 82.957,24.576L89.599,8.96C89.813,8.455 90.085,8.062 90.415,7.78C90.745,7.499 91.173,7.358 91.697,7.358C92.222,7.358 92.654,7.499 92.993,7.78C93.334,8.062 93.61,8.455 93.824,8.96L100.466,24.576C100.661,25.023 100.757,25.392 100.757,25.683C100.757,26.227 100.573,26.659 100.204,26.979C99.835,27.3 99.379,27.46 98.835,27.46C98.388,27.46 98.024,27.349 97.742,27.125C97.46,26.902 97.223,26.548 97.029,26.062L95.805,22.944L87.472,22.944L87.473,22.944Z" style="fill:rgb(65,65,66);fill-rule:nonzero;"/>
                        <g>
                            <path id="path62" d="M114.056,17.284C114.706,16.614 115.031,15.716 115.031,14.589C115.031,13.385 114.697,12.467 114.026,11.836C113.356,11.205 112.38,10.89 111.098,10.89L107.631,10.89L107.631,18.289L111.157,18.289C112.439,18.289 113.405,17.954 114.056,17.284L114.056,17.284ZM114.405,8.121C115.327,8.451 116.114,8.917 116.765,9.52C117.415,10.122 117.915,10.85 118.265,11.704C118.615,12.559 118.79,13.521 118.79,14.589C118.79,15.677 118.61,16.653 118.251,17.517C117.891,18.381 117.376,19.109 116.706,19.702C116.036,20.294 115.236,20.751 114.303,21.071C113.371,21.391 112.322,21.551 111.157,21.551L107.631,21.551L107.631,25.893C107.631,26.437 107.461,26.878 107.122,27.218C106.781,27.558 106.34,27.728 105.796,27.728C105.252,27.728 104.81,27.558 104.47,27.218C104.13,26.878 103.96,26.437 103.96,25.893L103.96,9.462C103.96,8.917 104.13,8.475 104.47,8.135C104.81,7.795 105.252,7.625 105.796,7.625L111.273,7.626C112.439,7.626 113.483,7.791 114.405,8.121L114.405,8.121Z" style="fill:rgb(65,65,66);fill-rule:nonzero;"/>
                        </g>
                    </g>
                    <g id="g1053">
                        <g>
                            <path id="path14" d="M42.615,31.768C40.92,30.073 38.692,29.225 36.469,29.225C34.245,29.225 32.016,30.074 30.322,31.768C28.63,33.46 27.782,35.686 27.782,37.908C27.782,40.131 28.631,42.36 30.327,44.056C32.019,45.749 34.246,46.598 36.469,46.597C38.692,46.598 40.919,45.75 42.612,44.057C44.306,42.363 45.154,40.135 45.154,37.911C45.154,35.687 44.308,33.46 42.615,31.768L41.972,32.412C43.487,33.927 44.243,35.916 44.244,37.911C44.243,39.905 43.485,41.896 41.968,43.414C40.452,44.93 38.462,45.686 36.469,45.687C34.476,45.686 32.487,44.929 30.971,43.413C29.45,41.893 28.692,39.902 28.692,37.908C28.692,35.915 29.45,33.928 30.966,32.412C32.483,30.894 34.474,30.136 36.469,30.135C38.463,30.136 40.453,30.893 41.972,32.412L42.615,31.768Z" style="fill:rgb(65,65,66);fill-rule:nonzero;"/>
                        </g>
                        <path id="path16" d="M7.21,35.147C8.162,22.269 17.326,11.64 29.475,8.497L29.475,6.7C16.366,9.891 6.439,21.284 5.459,35.115C4.543,35.452 3.888,36.331 3.888,37.364C3.888,38.691 4.963,39.766 6.289,39.766C7.615,39.766 8.69,38.691 8.69,37.364C8.69,36.365 8.079,35.509 7.21,35.147Z" style="fill:rgb(65,65,66);fill-rule:nonzero;"/>
                        <g>
                            <path id="path18" d="M36.937,58.591C35.999,58.591 35.189,59.13 34.794,59.913C23.305,58.83 14.284,49.132 14.284,37.364C14.284,27.488 20.64,19.073 29.475,15.981L29.475,14.134C19.658,17.294 12.534,26.511 12.534,37.365C12.534,50.043 22.253,60.49 34.631,61.656C34.919,62.659 35.841,63.394 36.937,63.394C38.263,63.394 39.338,62.319 39.338,60.992C39.338,59.667 38.263,58.591 36.937,58.591L36.937,58.591Z" style="fill:rgb(65,65,66);fill-rule:nonzero;"/>
                        </g>
                        <g>
                            <path id="path20" d="M55.501,37.177C55.501,35.851 54.426,34.776 53.1,34.776C51.774,34.776 50.699,35.851 50.699,37.177C50.699,38.217 51.361,39.1 52.286,39.434C51.271,47.001 44.777,52.857 36.937,52.857C28.395,52.857 21.445,45.908 21.445,37.365C21.445,31.527 24.692,26.434 29.475,23.794L29.475,21.823C23.693,24.609 19.694,30.529 19.694,37.365C19.694,46.873 27.429,54.607 36.937,54.607C45.763,54.607 53.057,47.94 54.057,39.379C54.906,39.009 55.501,38.163 55.501,37.177Z" style="fill:rgb(65,65,66);fill-rule:nonzero;"/>
                        </g>
                        <g>
                            <path id="path64" d="M30.325,43.411L29.061,44.676L29.704,45.319L30.969,44.055L30.325,43.411Z" style="fill:rgb(65,65,66);fill-rule:nonzero;"/>
                        </g>
                        <g>
                            <path id="path66" d="M43.235,30.502L41.97,31.766L42.614,32.41L43.878,31.145L43.235,30.502Z" style="fill:rgb(65,65,66);fill-rule:nonzero;"/>
                        </g>
                        <g id="g68">
                            <g>
                                <clipPath id="_clip1">
                                    <path d="M42.294,32.09C39.078,28.875 33.854,28.879 30.644,32.09C27.434,35.299 27.433,40.52 30.649,43.735C33.857,46.944 39.081,46.945 42.29,43.736C45.5,40.526 45.502,35.298 42.294,32.09Z"/>
                                </clipPath>
                                <g clip-path="url(#_clip1)">
                                    <g>
                                        <g>
                                            <path id="path76" d="M29.234,31.759C28.876,32.116 28.613,32.548 28.443,33.024C28.273,33.5 28.194,34.021 28.194,34.569C28.195,35.754 28.56,37.07 29.226,38.404C29.893,39.738 30.866,41.09 32.106,42.33C33.346,43.571 34.7,44.544 36.035,45.212C37.371,45.88 38.688,46.245 39.874,46.246C40.422,46.246 40.942,46.167 41.418,45.997C41.894,45.828 42.325,45.564 42.683,45.207L42.039,44.564C41.782,44.82 41.474,45.01 41.112,45.14C40.75,45.269 40.334,45.336 39.874,45.336C38.879,45.337 37.681,45.019 36.442,44.398C35.203,43.779 33.924,42.861 32.75,41.686C31.575,40.512 30.659,39.235 30.04,37.997C29.421,36.76 29.103,35.563 29.104,34.568C29.104,34.108 29.171,33.692 29.3,33.33C29.43,32.967 29.62,32.659 29.877,32.402L29.234,31.758L29.234,31.759Z" style="fill:rgb(65,65,66);fill-rule:nonzero;"/>
                                        </g>
                                        <g>
                                            <path id="path78" d="M32.599,28.076C32.234,28.44 31.967,28.879 31.794,29.364C31.621,29.848 31.54,30.378 31.54,30.936C31.541,32.143 31.913,33.484 32.592,34.844C33.272,36.204 34.264,37.582 35.528,38.846C36.793,40.111 38.172,41.104 39.533,41.785C40.895,42.465 42.238,42.837 43.445,42.838C44.003,42.838 44.532,42.757 45.017,42.585C45.501,42.412 45.94,42.145 46.304,41.781L45.66,41.138C45.397,41.4 45.081,41.595 44.711,41.728C44.341,41.86 43.915,41.928 43.446,41.928C42.428,41.929 41.205,41.604 39.94,40.971C38.676,40.338 37.37,39.402 36.171,38.203C34.973,37.005 34.038,35.701 33.406,34.437C32.774,33.175 32.449,31.953 32.451,30.936C32.451,30.466 32.519,30.04 32.651,29.67C32.784,29.299 32.979,28.983 33.242,28.719L32.599,28.076L32.599,28.076Z" style="fill:rgb(65,65,66);fill-rule:nonzero;"/>
                                        </g>
                                        <g>
                                            <path id="path80" d="M37.744,27.54C37.49,27.793 37.304,28.099 37.185,28.433C37.066,28.767 37.012,29.128 37.012,29.505C37.013,30.319 37.262,31.208 37.71,32.106C38.158,33.002 38.81,33.907 39.639,34.737C40.47,35.567 41.375,36.219 42.273,36.669C43.172,37.117 44.061,37.366 44.876,37.367C45.252,37.367 45.614,37.313 45.947,37.194C46.281,37.075 46.587,36.889 46.839,36.636L46.196,35.992C46.044,36.144 45.861,36.258 45.641,36.337C45.422,36.415 45.165,36.457 44.876,36.457C44.252,36.458 43.481,36.256 42.68,35.854C41.879,35.454 41.047,34.858 40.283,34.093C39.519,33.33 38.924,32.499 38.524,31.699C38.123,30.899 37.921,30.129 37.922,29.505C37.922,29.216 37.964,28.958 38.043,28.739C38.122,28.519 38.235,28.337 38.387,28.184L37.744,27.54L37.744,27.54Z" style="fill:rgb(65,65,66);fill-rule:nonzero;"/>
                                        </g>
                                        <g>
                                            <path id="path82" d="M43.098,31.284C42.81,30.996 42.461,30.785 42.077,30.651C41.693,30.515 41.274,30.454 40.832,30.454C39.703,30.456 38.418,30.849 37.087,31.549C35.756,32.251 34.38,33.267 33.101,34.547C31.822,35.826 30.807,37.2 30.106,38.529C29.406,39.86 29.014,41.143 29.012,42.272C29.012,42.713 29.074,43.133 29.209,43.517C29.344,43.902 29.555,44.251 29.843,44.539C30.13,44.826 30.479,45.036 30.862,45.171C31.247,45.306 31.665,45.368 32.107,45.368C33.234,45.366 34.518,44.974 35.849,44.275C37.179,43.574 38.554,42.559 39.833,41.28C41.113,39.999 42.129,38.623 42.831,37.292C43.532,35.96 43.924,34.674 43.926,33.546C43.926,33.105 43.865,32.687 43.73,32.303C43.595,31.919 43.385,31.571 43.098,31.284L42.454,31.928C42.639,32.112 42.776,32.335 42.871,32.605C42.966,32.874 43.016,33.19 43.016,33.546C43.018,34.458 42.681,35.629 42.026,36.868C41.373,38.107 40.409,39.417 39.19,40.636C37.971,41.855 36.664,42.817 35.425,43.469C34.188,44.123 33.018,44.46 32.107,44.458C31.75,44.458 31.434,44.408 31.164,44.313C30.895,44.218 30.672,44.08 30.486,43.896C30.301,43.71 30.163,43.486 30.068,43.216C29.973,42.946 29.922,42.629 29.922,42.272C29.92,41.36 30.257,40.191 30.911,38.954C31.563,37.716 32.526,36.409 33.744,35.191C34.963,33.971 36.272,33.008 37.511,32.354C38.749,31.699 39.92,31.362 40.832,31.364C41.189,31.364 41.506,31.415 41.775,31.51C42.045,31.605 42.269,31.743 42.454,31.928L43.098,31.284L43.098,31.284Z" style="fill:rgb(65,65,66);fill-rule:nonzero;"/>
                                        </g>
                                    </g>
                                </g>
                            </g>
                            <path d="M42.294,32.09C39.078,28.875 33.854,28.879 30.644,32.09C27.434,35.299 27.433,40.52 30.649,43.735C33.857,46.944 39.081,46.945 42.29,43.736C45.5,40.526 45.502,35.298 42.294,32.09Z" style="fill:none;fill-rule:nonzero;"/>
                        </g>
                    </g>
                </g>
            </g>
        </g>
        <g transform="matrix(1,0,0,1,2253.53,35.1038)">
            <text x="0px" y="0px" style="font-family:'ArialMT', 'Arial', sans-serif;font-size:24px;fill:rgb(65,65,66);">MAP<tspan x="51.575px 57.809px 72.469px " y="0px 0px 0px "> TI</tspan>TLE</text>
        </g>
    </g>
    <g id="map_x0020_area">
        <g>
            <path d="M1729.1,1222.57L28.319,1222.57L28.319,88.708L1729.1,88.708L1729.1,1222.57ZM29.027,1221.86L1728.4,1221.86L1728.4,89.417L29.027,89.417L29.027,1221.86Z" style="fill:rgb(65,65,66);"/>
        </g>
        <path d="M228.327,980.911L591.545,186.278" style="fill:none;fill-rule:nonzero;stroke:black;stroke-width:0.57px;"/>
        <path d="M406.201,1049.39L669.601,216.327" style="fill:none;fill-rule:nonzero;stroke:black;stroke-width:0.57px;"/>
        <path d="M591.109,1095.62L750.745,236.614" style="fill:none;fill-rule:nonzero;stroke:black;stroke-width:0.57px;"/>
        <path d="M780.28,1118.9L833.759,246.834" style="fill:none;fill-rule:nonzero;stroke:black;stroke-width:0.57px;"/>
        <path d="M970.879,1118.9L917.4,246.834" style="fill:none;fill-rule:nonzero;stroke:black;stroke-width:0.57px;"/>
        <path d="M1160.05,1095.62L1000.41,236.614" style="fill:none;fill-rule:nonzero;stroke:black;stroke-width:0.57px;"/>
        <path d="M1344.96,1049.39L1081.56,216.327" style="fill:none;fill-rule:nonzero;stroke:black;stroke-width:0.57px;"/>
        <path d="M1522.83,980.911L1159.61,186.278" style="fill:none;fill-rule:nonzero;stroke:black;stroke-width:0.57px;"/>
        <path d="M154.043,738.497C360.056,865.153 595.78,935.349 837.52,942.03C1079.26,948.711 1318.5,891.64 1531.19,776.556C1553.64,764.411 1575.37,751.864 1597.12,738.497" style="fill:none;fill-rule:nonzero;stroke:black;stroke-width:0.57px;"/>
        <path d="M254.496,575.106C431.828,684.129 634.733,744.552 842.818,750.303C1050.9,756.053 1256.84,706.928 1439.92,607.866C1459.24,597.412 1477.95,586.611 1496.66,575.106" style="fill:none;fill-rule:nonzero;stroke:black;stroke-width:0.57px;"/>
        <path d="M353.631,413.855C502.658,505.476 673.176,556.255 848.047,561.087C1022.92,565.92 1195.98,524.637 1349.84,441.386C1366.08,432.6 1381.8,423.524 1397.53,413.855" style="fill:none;fill-rule:nonzero;stroke:black;stroke-width:0.57px;"/>
        <path d="M454.589,249.642C574.79,323.542 712.326,364.499 853.373,368.396C994.42,372.294 1134.01,338.996 1258.11,271.849C1271.2,264.762 1283.88,257.441 1296.57,249.642" style="fill:none;fill-rule:nonzero;stroke:black;stroke-width:0.57px;"/>
        <path d="M1691.01,891.213L1233.41,146.916" style="fill:none;fill-rule:nonzero;stroke:black;stroke-width:1px;stroke-linecap:butt;stroke-linejoin:miter;"/>
        <path d="M1233.41,146.916C1222.63,153.545 1211.85,159.767 1200.72,165.791C1095.24,222.865 976.592,251.167 856.704,247.855C736.817,244.541 619.914,209.728 517.745,146.916" style="fill:none;fill-rule:nonzero;stroke:black;stroke-width:1px;stroke-linecap:butt;stroke-linejoin:miter;"/>
        <path d="M517.745,146.916L60.154,891.213" style="fill:none;fill-rule:nonzero;stroke:black;stroke-width:1px;stroke-linecap:butt;stroke-linejoin:miter;"/>
        <path d="M60.154,891.213C292.974,1034.35 559.37,1113.68 832.567,1121.23C1105.76,1128.78 1376.13,1064.28 1616.51,934.225C1641.87,920.498 1666.43,906.318 1691.01,891.213" style="fill:none;fill-rule:nonzero;stroke:black;stroke-width:1px;stroke-linecap:butt;stroke-linejoin:miter;"/>
        <g transform="matrix(1,0.52373,-0.52373,0.85188,521.628,141.6)">
            <text x="0px" y="0px" style="font-family:'ArialMT', 'Arial', sans-serif;font-size:7.56px;">0° East</text>
        </g>
        <g transform="matrix(1,-0.52373,0.52373,0.85188,1206.87,157.968)">
            <text x="0px" y="0px" style="font-family:'ArialMT', 'Arial', sans-serif;font-size:7.56px;fill:rgb(27,26,24);">90° East</text>
        </g>
        <g transform="matrix(1,0.52373,-0.52373,0.85188,45.1623,883.146)">
            <text x="0px" y="0px" style="font-family:'ArialMT', 'Arial', sans-serif;font-size:7.56px;fill:rgb(27,26,24);">21°</text>
        </g>
        <g transform="matrix(1,-0.52373,0.52373,0.85188,1698.02,890.49)">
            <text x="0px" y="0px" style="font-family:'ArialMT', 'Arial', sans-serif;font-size:7.56px;fill:rgb(27,26,24);">21°</text>
        </g>
        <g transform="matrix(1,0.52373,-0.52373,0.85188,501.052,141.612)">
            <text x="0px" y="0px" style="font-family:'ArialMT', 'Arial', sans-serif;font-size:7.56px;fill:rgb(27,26,24);">66°</text>
        </g>
        <g transform="matrix(1,-0.52373,0.52373,0.85188,1242.13,148.956)">
            <text x="0px" y="0px" style="font-family:'ArialMT', 'Arial', sans-serif;font-size:7.56px;fill:rgb(27,26,24);">66°</text>
        </g>
        <g transform="matrix(1,0.18271,-0.18271,0.98317,746.537,229.582)">
            <text x="0px" y="0px" style="font-family:'ArialMT', 'Arial', sans-serif;font-size:7.56px;fill:rgb(27,26,24);">30°</text>
        </g>
        <g transform="matrix(1,0.18271,-0.18271,0.98317,583.554,1106.61)">
            <text x="0px" y="0px" style="font-family:'ArialMT', 'Arial', sans-serif;font-size:7.56px;fill:rgb(27,26,24);">30°</text>
        </g>
        <g transform="matrix(1,0.06121,-0.06121,0.99812,828.954,240.562)">
            <text x="0px" y="0px" style="font-family:'ArialMT', 'Arial', sans-serif;font-size:7.56px;fill:rgb(27,26,24);">40°</text>
        </g>
        <g transform="matrix(1,0.06121,-0.06121,0.99812,774.351,1130.93)">
            <text x="0px" y="0px" style="font-family:'ArialMT', 'Arial', sans-serif;font-size:7.56px;fill:rgb(27,26,24);">40°</text>
        </g>
        <g transform="matrix(1,-0.06121,0.06121,0.99812,912.154,241.406)">
            <text x="0px" y="0px" style="font-family:'ArialMT', 'Arial', sans-serif;font-size:7.56px;fill:rgb(27,26,24);">50°</text>
        </g>
        <g transform="matrix(1,-0.06121,0.06121,0.99812,966.757,1131.77)">
            <text x="0px" y="0px" style="font-family:'ArialMT', 'Arial', sans-serif;font-size:7.56px;fill:rgb(27,26,24);">50°</text>
        </g>
        <g transform="matrix(1,-0.18271,0.18271,0.98317,994.865,232.139)">
            <text x="0px" y="0px" style="font-family:'ArialMT', 'Arial', sans-serif;font-size:7.56px;fill:rgb(27,26,24);">60°</text>
        </g>
        <g transform="matrix(1,-0.18271,0.18271,0.98317,1157.85,1109.17)">
            <text x="0px" y="0px" style="font-family:'ArialMT', 'Arial', sans-serif;font-size:7.56px;fill:rgb(27,26,24);">60°</text>
        </g>
        <g transform="matrix(1,-0.30147,0.30147,0.95347,1075.73,212.767)">
            <text x="0px" y="0px" style="font-family:'ArialMT', 'Arial', sans-serif;font-size:7.56px;fill:rgb(27,26,24);">70°</text>
        </g>
        <g transform="matrix(1,-0.30147,0.30147,0.95347,1344.65,1063.3)">
            <text x="0px" y="0px" style="font-family:'ArialMT', 'Arial', sans-serif;font-size:7.56px;fill:rgb(27,26,24);">70°</text>
        </g>
        <g transform="matrix(1,-0.41572,0.41572,0.90949,1153.7,183.655)">
            <text x="0px" y="0px" style="font-family:'ArialMT', 'Arial', sans-serif;font-size:7.56px;fill:rgb(27,26,24);">80°</text>
        </g>
        <g transform="matrix(1,-0.41572,0.41572,0.90949,1524.54,994.955)">
            <text x="0px" y="0px" style="font-family:'ArialMT', 'Arial', sans-serif;font-size:7.56px;fill:rgb(27,26,24);">80°</text>
        </g>
        <g transform="matrix(1,0.52373,-0.52373,0.85188,137.865,732.36)">
            <text x="0px" y="0px" style="font-family:'ArialMT', 'Arial', sans-serif;font-size:7.56px;fill:rgb(27,26,24);">30°</text>
        </g>
        <g transform="matrix(1,-0.52373,0.52373,0.85188,1605.31,739.704)">
            <text x="0px" y="0px" style="font-family:'ArialMT', 'Arial', sans-serif;font-size:7.56px;fill:rgb(27,26,24);">30°</text>
        </g>
        <g transform="matrix(1,0.52373,-0.52373,0.85188,238.569,568.56)">
            <text x="0px" y="0px" style="font-family:'ArialMT', 'Arial', sans-serif;font-size:7.56px;fill:rgb(27,26,24);">40°</text>
        </g>
        <g transform="matrix(1,-0.52373,0.52373,0.85188,1504.61,575.905)">
            <text x="0px" y="0px" style="font-family:'ArialMT', 'Arial', sans-serif;font-size:7.56px;fill:rgb(27,26,24);">40°</text>
        </g>
        <g transform="matrix(1,0.52373,-0.52373,0.85188,337.95,406.907)">
            <text x="0px" y="0px" style="font-family:'ArialMT', 'Arial', sans-serif;font-size:7.56px;fill:rgb(27,26,24);">50°</text>
        </g>
        <g transform="matrix(1,-0.52373,0.52373,0.85188,1405.23,414.251)">
            <text x="0px" y="0px" style="font-family:'ArialMT', 'Arial', sans-serif;font-size:7.56px;fill:rgb(27,26,24);">50°</text>
        </g>
        <g transform="matrix(1,0.52373,-0.52373,0.85188,439.162,242.282)">
            <text x="0px" y="0px" style="font-family:'ArialMT', 'Arial', sans-serif;font-size:7.56px;fill:rgb(27,26,24);">60°</text>
        </g>
        <g transform="matrix(1,-0.52373,0.52373,0.85188,1304.02,249.627)">
            <text x="0px" y="0px" style="font-family:'ArialMT', 'Arial', sans-serif;font-size:7.56px;fill:rgb(27,26,24);">60°</text>
        </g>
        <g transform="matrix(1,0.41572,-0.41572,0.90949,588.661,177.87)">
            <text x="0px" y="0px" style="font-family:'ArialMT', 'Arial', sans-serif;font-size:7.56px;fill:rgb(27,26,24);">10°</text>
        </g>
        <g transform="matrix(1,0.41572,-0.41572,0.90949,217.825,989.17)">
            <text x="0px" y="0px" style="font-family:'ArialMT', 'Arial', sans-serif;font-size:7.56px;fill:rgb(27,26,24);">10°</text>
        </g>
        <g transform="matrix(1,0.30147,-0.30147,0.95347,666.009,208.527)">
            <text x="0px" y="0px" style="font-family:'ArialMT', 'Arial', sans-serif;font-size:7.56px;fill:rgb(27,26,24);">20°</text>
        </g>
        <g transform="matrix(1,0.30147,-0.30147,0.95347,397.088,1059.06)">
            <text x="0px" y="0px" style="font-family:'ArialMT', 'Arial', sans-serif;font-size:7.56px;fill:rgb(27,26,24);">20°</text>
        </g>
    </g>
    <g id="scale">
        <path d="M1707.24,1198L1423.78,1198L1423.78,1141.31L1707.24,1141.31L1707.24,1198Z" style="fill:none;fill-rule:nonzero;stroke:rgb(65,65,66);stroke-width:0.71px;stroke-linecap:butt;stroke-linejoin:miter;stroke-miterlimit:3.86369;"/>
        <g transform="matrix(1,0,0,1,1528.47,1160.3)">
            <text x="0px" y="0px" style="font-family:'Arial-BoldMT', 'Arial', sans-serif;font-weight:700;font-size:12px;fill:rgb(227,227,228);">SCALE BAR/</text>
        </g>
        <g transform="matrix(1,0,0,1,1461.92,1173.71)">
            <text x="0px" y="0px" style="font-family:'Arial-BoldMT', 'Arial', sans-serif;font-weight:700;font-size:12px;fill:rgb(227,227,228);">INFORMA<tspan x="55.101px 62.431px " y="0px 0px ">TI</tspan>ON <tspan x="86.654px 95.32px " y="0px 0px ">AB</tspan>OUT DIST<tspan x="159.767px 169.101px " y="0px 0px ">OR</tspan>TION</text>
        </g>
        <g transform="matrix(1,0,0,1,1505.36,1187.11)">
            <text x="0px" y="0px" style="font-family:'Arial-BoldMT', 'Arial', sans-serif;font-weight:700;font-size:12px;fill:rgb(227,227,228);">AND <tspan x="28.887px 37.553px " y="0px 0px ">AP</tspan>PLICABILITY</text>
        </g>
        <g transform="matrix(1,0,0,1,1429.36,1154.86)">
            <text x="0px" y="0px" style="font-family:'ArialMT', 'Arial', sans-serif;font-size:14px;fill:rgb(65,65,66);">SCALE</text>
        </g>
    </g>
    <g id="location_x002f_surrounding">
        <g>
            <path d="M1728.92,1623.97L1317.9,1623.97L1317.9,1255.29L1728.92,1255.29L1728.92,1623.97Z" style="fill:none;fill-rule:nonzero;stroke:rgb(65,65,66);stroke-width:0.71px;stroke-linecap:butt;stroke-linejoin:miter;stroke-miterlimit:3.86369;"/>
            <g transform="matrix(1,0,0,1,1490.58,1432.09)">
                <text x="0px" y="0px" style="font-family:'Arial-BoldMT', 'Arial', sans-serif;font-weight:700;font-size:12px;fill:rgb(227,227,228);">LOCA<tspan x="33.105px 40.435px " y="0px 0px ">TI</tspan>ON/</text>
            </g>
            <g transform="matrix(1,0,0,1,1476.14,1445.49)">
                <text x="0px" y="0px" style="font-family:'Arial-BoldMT', 'Arial', sans-serif;font-weight:700;font-size:12px;fill:rgb(227,227,228);">SURROUNDING/</text>
            </g>
            <g transform="matrix(1,0,0,1,1489.8,1458.9)">
                <text x="0px" y="0px" style="font-family:'Arial-BoldMT', 'Arial', sans-serif;font-weight:700;font-size:12px;fill:rgb(227,227,228);">INDEX MAP</text>
            </g>
            <g transform="matrix(1.03571,0,0,1,1326.54,1274.82)">
                <text x="0px" y="0px" style="font-family:'ArialMT', 'Arial', sans-serif;font-size:14px;fill:rgb(65,65,66);">LOCA<tspan x="37.085px 45.637px " y="0px 0px ">TI</tspan>ON</text>
            </g>
        </g>
    </g>
    <g id="Base_x0020_Data">
        <g>
            <path d="M1153.82,1623.97L1012.45,1623.97L1012.45,1255.46L1153.82,1255.46L1153.82,1623.97Z" style="fill:none;fill-rule:nonzero;stroke:rgb(227,227,228);stroke-width:1px;stroke-linecap:butt;stroke-linejoin:miter;stroke-miterlimit:3.86369;"/>
            <path d="M1290.1,1623.97L879.075,1623.97L879.075,1255.46L1290.1,1255.46L1290.1,1623.97Z" style="fill:none;fill-rule:nonzero;stroke:rgb(65,65,66);stroke-width:0.71px;stroke-linecap:butt;stroke-linejoin:miter;stroke-miterlimit:3.86369;"/>
            <g transform="matrix(1.03571,0,0,1,1047.8,1444.25)">
                <text x="0px" y="0px" style="font-family:'Arial-BoldMT', 'Arial', sans-serif;font-weight:700;font-size:12px;fill:rgb(227,227,228);">SPECTRAL/</text>
            </g>
            <g transform="matrix(1.03571,0,0,1,936.85,1444.51)">
                <text x="0px" y="0px" style="font-family:'Arial-BoldMT', 'Arial', sans-serif;font-weight:700;font-size:12px;fill:rgb(227,227,228);">DTM/</text>
            </g>
            <g transform="matrix(1.03571,0,0,1,1189.61,1444.24)">
                <text x="0px" y="0px" style="font-family:'Arial-BoldMT', 'Arial', sans-serif;font-weight:700;font-size:12px;fill:rgb(227,227,228);">COLOUR</text>
            </g>
            <g transform="matrix(1.03571,0,0,1,896.986,1274.62)">
                <text x="0px" y="0px" style="font-family:'ArialMT', 'Arial', sans-serif;font-size:14px;fill:rgb(65,65,66);">BASE DA<tspan x="59.651px " y="0px ">T</tspan>A</text>
            </g>
        </g>
    </g>
    <g id="profile">
        <g>
            <g>
                <path d="M850.201,1623.39L28.154,1623.39L28.154,1254.89L850.201,1254.89L850.201,1623.39ZM28.862,1622.68L849.492,1622.68L849.492,1255.6L28.862,1255.6L28.862,1622.68Z" style="fill:rgb(65,65,66);"/>
            </g>
            <g transform="matrix(1,0,0,1,385.292,1436.32)">
                <text x="0px" y="0px" style="font-family:'Arial-BoldMT', 'Arial', sans-serif;font-weight:700;font-size:12px;fill:rgb(227,227,228);">GEOLOGICAL<tspan x="80.449px 83.783px " y="0px 0px "> P</tspan>ROFILE</text>
            </g>
            <g transform="matrix(1,0,0,1,360.395,1449.73)">
                <text x="0px" y="0px" style="font-family:'Arial-BoldMT', 'Arial', sans-serif;font-weight:700;font-size:12px;fill:rgb(227,227,228);">OF REPRESENT<tspan x="92.455px 100.23px 107.56px " y="0px 0px 0px ">ATI</tspan>VE REGIONS</text>
            </g>
            <g transform="matrix(1,0,0,1,38.0588,1274.44)">
                <text x="0px" y="0px" style="font-family:'ArialMT', 'Arial', sans-serif;font-size:14px;fill:rgb(65,65,66);">PROFILE</text>
            </g>
            <g transform="matrix(1,0,0,1,27.5022,1672.63)">
                <text x="0px" y="0px" style="font-family:'ArialMT', 'Arial', sans-serif;font-size:12px;fill:rgb(65,65,66);">NAMING <tspan x="50.672px 58.676px " y="0px 0px ">AC</tspan>CRONYM</text>
            </g>
        </g>
    </g>
    <g id="Legend">
        <g transform="matrix(1,0,0,1,1877.85,1070.86)">
            <text x="0px" y="0px" style="font-family:'Arial-BoldMT', 'Arial', sans-serif;font-weight:700;font-size:12px;fill:rgb(227,227,228);">POINT</text>
        </g>
        <g transform="matrix(1,0,0,1,1864.3,1084.27)">
            <text x="0px" y="0px" style="font-family:'Arial-BoldMT', 'Arial', sans-serif;font-weight:700;font-size:12px;fill:rgb(227,227,228);">FEA<tspan x="23.109px 30.439px " y="0px 0px ">TU</tspan>RES</text>
        </g>
        <path d="M2042.59,938.98L1759.12,938.98L1759.12,1222.44L2042.59,1222.44L2042.59,938.98Z" style="fill:none;fill-rule:nonzero;stroke:rgb(227,227,228);stroke-width:1px;stroke-linecap:butt;stroke-linejoin:miter;stroke-miterlimit:3.86369;"/>
        <g transform="matrix(1,0,0,1,1874.75,233.486)">
            <text x="0px" y="0px" style="font-family:'Arial-BoldMT', 'Arial', sans-serif;font-weight:700;font-size:12px;fill:rgb(227,227,228);">CONT<tspan x="33.105px 41.771px " y="0px 0px ">AC</tspan>TS</text>
        </g>
        <g transform="matrix(1,0,0,1,1880.99,807.236)">
            <text x="0px" y="0px" style="font-family:'Arial-BoldMT', 'Arial', sans-serif;font-weight:700;font-size:12px;fill:rgb(227,227,228);">AREAL</text>
        </g>
        <g transform="matrix(1,0,0,1,1869.76,820.642)">
            <text x="0px" y="0px" style="font-family:'Arial-BoldMT', 'Arial', sans-serif;font-weight:700;font-size:12px;fill:rgb(227,227,228);">FEA<tspan x="23.109px 30.439px " y="0px 0px ">TU</tspan>RES</text>
        </g>
        <g transform="matrix(1,0,0,1,1764.15,102.79)">
            <text x="0px" y="0px" style="font-family:'ArialMT', 'Arial', sans-serif;font-size:14px;fill:rgb(65,65,66);">LEGEND</text>
        </g>
        <path d="M2042.67,372.069L1759.21,372.069L1759.21,655.533L2042.67,655.533L2042.67,372.069Z" style="fill:none;fill-rule:nonzero;stroke:rgb(227,227,228);stroke-width:1px;stroke-linecap:butt;stroke-linejoin:miter;stroke-miterlimit:3.86369;"/>
        <path d="M2042.79,1222.15L1759.33,1222.15L1759.33,88.293L2042.79,88.293L2042.79,1222.15Z" style="fill:none;fill-rule:nonzero;stroke:rgb(65,65,66);stroke-width:0.71px;stroke-linecap:butt;stroke-linejoin:miter;stroke-miterlimit:3.86369;"/>
        <g transform="matrix(0.999987,0,0,0.999987,1882.34,500.396)">
            <text x="0px" y="0px" style="font-family:'Arial-BoldMT', 'Arial', sans-serif;font-weight:700;font-size:12px;fill:rgb(227,227,228);">LINEAR</text>
        </g>
        <g transform="matrix(0.999987,0,0,0.999987,1872.79,513.802)">
            <text x="0px" y="0px" style="font-family:'Arial-BoldMT', 'Arial', sans-serif;font-weight:700;font-size:12px;fill:rgb(227,227,228);">FEA<tspan x="23.109px 30.439px " y="0px 0px ">TU</tspan>RES</text>
        </g>
    </g>
    <g id="Description_x0020_Units">
        <g transform="matrix(1,0,0,1,2181.35,722.017)">
            <text x="0px" y="0px" style="font-family:'Arial-BoldMT', 'Arial', sans-serif;font-weight:700;font-size:12px;fill:rgb(227,227,228);">DESRIPTION</text>
        </g>
        <g transform="matrix(1,0,0,1,2209.68,735.423)">
            <text x="0px" y="0px" style="font-family:'Arial-BoldMT', 'Arial', sans-serif;font-weight:700;font-size:12px;fill:rgb(227,227,228);">OF</text>
        </g>
        <g transform="matrix(1,0,0,1,2156.46,748.829)">
            <text x="0px" y="0px" style="font-family:'Arial-BoldMT', 'Arial', sans-serif;font-weight:700;font-size:12px;fill:rgb(227,227,228);">GEOLIOGICAL<tspan x="83.783px 87.117px " y="0px 0px "> U</tspan>NITS</text>
        </g>
        <path d="M2355.52,1222.18L2072.06,1222.18L2072.06,88.322L2355.52,88.322L2355.52,1222.18Z" style="fill:none;fill-rule:nonzero;stroke:rgb(65,65,66);stroke-width:0.71px;stroke-linecap:butt;stroke-linejoin:miter;stroke-miterlimit:3.86369;"/>
        <g transform="matrix(1,0,0,1,2076.88,102.94)">
            <text x="0px" y="0px" style="font-family:'ArialMT', 'Arial', sans-serif;font-size:14px;fill:rgb(65,65,66);">UNIT<tspan x="32.409px 36.298px " y="0px 0px "> D</tspan>ESCRIPTION</text>
        </g>
    </g>
    <g id="Author_x002f_Map_x002f_Copyright_x002f_..._x0020_Info">
        <g>
            <g transform="matrix(1,0,0,1,1999.54,1432.46)">
                <text x="0px" y="0px" style="font-family:'Arial-BoldMT', 'Arial', sans-serif;font-weight:700;font-size:12px;fill:rgb(227,227,228);">INFORMA<tspan x="55.101px 62.431px " y="0px 0px ">TI</tspan>ON <tspan x="86.654px 95.32px " y="0px 0px ">AB</tspan>OUT</text>
            </g>
            <g transform="matrix(1,0,0,1,1920.86,1445.87)">
                <text x="0px" y="0px" style="font-family:'Arial-BoldMT', 'Arial', sans-serif;font-weight:700;font-size:12px;fill:rgb(227,227,228);">AUTHOR/MAP/REFERENCES/COPYRIGHT/LOGOs</text>
            </g>
            <path d="M2355.45,1623.28L1757.58,1623.28L1757.58,1254.78L2355.45,1254.78L2355.45,1623.28Z" style="fill:none;fill-rule:nonzero;stroke:rgb(65,65,66);stroke-width:0.71px;stroke-linecap:butt;stroke-linejoin:miter;stroke-miterlimit:3.86369;"/>
            <g transform="matrix(1,0,0,1,1762.4,1269.24)">
                <text x="0px" y="0px" style="font-family:'ArialMT', 'Arial', sans-serif;font-size:14px;fill:rgb(65,65,66);">MAP<tspan x="30.085px 33.202px 42.54px " y="0px 0px 0px "> AN</tspan>D <tspan x="65.878px 75.216px " y="0px 0px ">AU</tspan>THOR INFORMA<tspan x="192.391px 200.943px " y="0px 0px ">TI</tspan>ON</text>
            </g>
        </g>
    </g>
</svg>
